<?xml version="1.0"?>
<svg xmlns="http://www.w3.org/2000/svg" height="512px" version="1.1" viewBox="-91 0 512 512" width="512px">
<g id="surface1">
<path d="M 264.058594 479.179688 L 65.925781 479.179688 C 60.402344 479.179688 55.925781 474.699219 55.925781 469.179688 L 55.925781 304.078125 C 55.925781 299.484375 59.058594 295.480469 63.515625 294.371094 L 261.648438 245.132812 C 264.632812 244.390625 267.796875 245.0625 270.21875 246.960938 C 272.644531 248.855469 274.058594 251.761719 274.058594 254.835938 L 274.058594 306.871094 C 274.058594 312.394531 269.582031 316.871094 264.058594 316.871094 C 258.539062 316.871094 254.058594 312.394531 254.058594 306.871094 L 254.058594 267.628906 L 75.925781 311.898438 L 75.925781 459.179688 L 254.058594 459.179688 L 254.058594 379.921875 C 254.058594 374.398438 258.539062 369.921875 264.058594 369.921875 C 269.582031 369.921875 274.058594 374.398438 274.058594 379.921875 L 274.058594 469.179688 C 274.058594 474.699219 269.582031 479.179688 264.058594 479.179688 Z M 264.058594 479.179688 " style=" fill-rule:nonzero;fill-opacity:1;" stroke="#5a2106" fill="#5a2106"/>
<path d="M 264.0625 353.898438 C 263.402344 353.898438 262.753906 353.828125 262.101562 353.699219 C 261.460938 353.570312 260.832031 353.378906 260.234375 353.128906 C 259.632812 352.878906 259.050781 352.570312 258.511719 352.210938 C 257.960938 351.851562 257.453125 351.429688 256.992188 350.96875 C 256.523438 350.511719 256.113281 350 255.742188 349.449219 C 255.382812 348.910156 255.070312 348.320312 254.820312 347.71875 C 254.570312 347.121094 254.382812 346.488281 254.253906 345.851562 C 254.121094 345.210938 254.0625 344.550781 254.0625 343.898438 C 254.0625 343.25 254.125 342.589844 254.253906 341.941406 C 254.382812 341.308594 254.570312 340.679688 254.820312 340.070312 C 255.070312 339.46875 255.382812 338.890625 255.742188 338.351562 C 256.113281 337.800781 256.523438 337.289062 256.992188 336.820312 C 257.453125 336.359375 257.960938 335.949219 258.511719 335.578125 C 259.050781 335.21875 259.632812 334.910156 260.234375 334.660156 C 260.832031 334.410156 261.460938 334.21875 262.101562 334.089844 C 263.390625 333.828125 264.722656 333.828125 266.011719 334.089844 C 266.652344 334.21875 267.28125 334.410156 267.882812 334.660156 C 268.484375 334.910156 269.0625 335.21875 269.613281 335.578125 C 270.164062 335.949219 270.671875 336.359375 271.132812 336.820312 C 271.59375 337.289062 272.011719 337.800781 272.371094 338.351562 C 272.730469 338.890625 273.042969 339.46875 273.292969 340.070312 C 273.542969 340.679688 273.730469 341.308594 273.863281 341.941406 C 273.992188 342.589844 274.0625 343.25 274.0625 343.898438 C 274.0625 344.550781 273.992188 345.210938 273.863281 345.851562 C 273.730469 346.488281 273.542969 347.121094 273.292969 347.71875 C 273.042969 348.320312 272.730469 348.910156 272.371094 349.449219 C 272.011719 350 271.59375 350.511719 271.132812 350.96875 C 270.671875 351.429688 270.164062 351.851562 269.613281 352.210938 C 269.0625 352.570312 268.480469 352.878906 267.882812 353.128906 C 267.28125 353.378906 266.652344 353.570312 266.011719 353.699219 C 265.363281 353.828125 264.714844 353.898438 264.0625 353.898438 Z M 264.0625 353.898438 " style=" fill-rule:nonzero;fill-opacity:1;" stroke="#5a2106" fill="#5a2106"/>
<path d="M 328.992188 176.042969 C 324.957031 160.980469 309.652344 151.886719 294.566406 155.414062 L 294.566406 89.09375 C 294.566406 84.449219 291.371094 80.417969 286.851562 79.359375 C 278.125 77.3125 270.695312 70.964844 266.460938 61.941406 C 264.632812 58.046875 263.488281 53.867188 263.058594 49.523438 C 262.765625 46.535156 261.144531 43.839844 258.644531 42.179688 C 256.148438 40.519531 253.039062 40.066406 250.167969 40.949219 C 236.785156 45.0625 222.832031 38.09375 216.222656 23.992188 C 214.320312 19.941406 213.164062 15.597656 212.773438 11.070312 C 212.769531 11.058594 212.769531 11.039062 212.769531 11.027344 C 212.726562 10.527344 212.695312 10.027344 212.671875 9.53125 C 212.421875 4.195312 208.019531 0 202.683594 0 L 39.414062 0 C 33.890625 0 29.414062 4.476562 29.414062 10 L 29.414062 226.40625 L 21.394531 228.554688 C 13.953125 230.546875 7.730469 235.320312 3.878906 241.992188 C 0.0234375 248.664062 -1 256.4375 0.996094 263.878906 C 2.992188 271.34375 7.761719 277.339844 13.894531 281.0625 L 13.894531 502 C 13.894531 507.523438 18.371094 512 23.894531 512 L 306.089844 512 C 311.613281 512 316.089844 507.523438 316.089844 502 L 316.089844 208.183594 C 320.199219 205.699219 323.640625 202.203125 326.105469 197.933594 C 329.960938 191.257812 330.984375 183.484375 328.992188 176.042969 Z M 120.285156 202.070312 L 120.285156 142.121094 L 192.804688 142.121094 L 192.804688 182.652344 Z M 212.804688 177.296875 L 212.804688 142.121094 L 274.570312 142.121094 L 274.570312 160.753906 Z M 245.183594 62.023438 C 246.019531 64.902344 247.078125 67.710938 248.355469 70.433594 C 253.96875 82.394531 263.289062 91.507812 274.570312 96.304688 L 274.570312 122.121094 L 212.804688 122.121094 L 212.804688 51.363281 C 222.046875 58.820312 233.5 62.695312 245.183594 62.023438 Z M 192.804688 122.121094 L 120.289062 122.121094 L 120.289062 20 L 192.804688 20 Z M 49.414062 20 L 100.285156 20 L 100.285156 122.121094 L 49.414062 122.121094 Z M 49.414062 142.121094 L 100.285156 142.121094 L 100.285156 207.425781 L 49.414062 221.050781 Z M 21.199219 251.992188 C 22.378906 249.949219 24.289062 248.484375 26.570312 247.871094 L 298.839844 174.960938 C 299.601562 174.757812 300.371094 174.65625 301.125 174.65625 C 305.03125 174.65625 308.617188 177.269531 309.671875 181.21875 C 310.285156 183.5 309.96875 185.882812 308.789062 187.929688 C 307.609375 189.972656 305.707031 191.433594 303.425781 192.046875 L 31.148438 264.960938 C 26.4375 266.222656 21.578125 263.417969 20.3125 258.707031 C 19.703125 256.421875 20.015625 254.039062 21.199219 251.992188 Z M 33.894531 492 L 33.894531 284.929688 L 296.09375 214.714844 L 296.09375 492 Z M 33.894531 492 " style=" fill-rule:nonzero;fill-opacity:1;" stroke="#5a2106" fill="#5a2106"/>
<path d="M 231.574219 343.277344 C 229.921875 342.949219 190.789062 335.476562 169.777344 356.585938 C 167.984375 358.390625 166.394531 360.332031 164.992188 362.367188 C 163.589844 360.332031 162.003906 358.394531 160.207031 356.585938 C 139.199219 335.476562 100.066406 342.949219 98.410156 343.277344 C 94.433594 344.066406 91.328125 347.179688 90.542969 351.15625 C 90.21875 352.820312 82.796875 392.078125 103.773438 413.160156 C 115.921875 425.367188 134.132812 428.019531 147.648438 428.019531 C 156.261719 428.019531 162.972656 426.945312 164.992188 426.578125 C 167.015625 426.945312 173.722656 428.019531 182.335938 428.019531 C 195.855469 428.019531 214.066406 425.367188 226.214844 413.160156 C 247.191406 392.078125 239.769531 352.820312 239.441406 351.15625 C 238.660156 347.179688 235.554688 344.066406 231.574219 343.277344 Z M 154.714844 407.765625 C 143.851562 408.660156 126.792969 407.9375 117.949219 399.054688 C 109.074219 390.132812 108.367188 372.914062 109.261719 361.984375 C 120.128906 361.089844 137.1875 361.808594 146.027344 370.695312 C 154.90625 379.613281 155.613281 396.832031 154.714844 407.765625 Z M 212.039062 399.054688 C 203.195312 407.941406 186.125 408.65625 175.273438 407.765625 C 174.375 396.824219 175.082031 379.609375 183.957031 370.695312 C 192.800781 361.804688 209.875 361.089844 220.722656 361.980469 C 221.621094 372.921875 220.910156 390.136719 212.039062 399.054688 Z M 212.039062 399.054688 " style=" fill-rule:nonzero;fill-opacity:1;" stroke="#5a2106" fill="#5a2106"/>
</g>
</svg>
