<?xml version="1.0"?>
<svg xmlns="http://www.w3.org/2000/svg" height="512px" viewBox="0 0 496 496" width="512px"><path d="m408 272h-88v-1.375c0-2.105469.847656-4.167969 2.34375-5.65625l6.625-6.625c4.535156-4.527344 7.03125-10.558594 7.03125-16.96875v-2.75c0-6.410156-2.496094-12.441406-7.03125-16.96875l-6.625-6.625c-1.496094-1.496094-2.34375-3.550781-2.34375-5.65625v-2.75c0-2.105469.847656-4.167969 2.34375-5.65625l8.96875-8.96875h12.6875c3.03125 0 5.800781-1.710938 7.160156-4.425781 1.351563-2.710938 1.0625-5.949219-.761718-8.375l-15.992188-21.320313c28.363281-8.199218 49.59375-39.96875 49.59375-77.878906 0-44.113281-28.710938-80-64-80s-64 35.886719-64 80c0 37.910156 21.230469 69.679688 49.59375 77.878906l-15.992188 21.320313c-1.824218 2.425781-2.113281 5.664062-.761718 8.375 1.359375 2.714843 4.128906 4.425781 7.160156 4.425781h13.105469c-3.25 4.183594-5.105469 9.238281-5.105469 14.625v2.75c0 6.410156 2.496094 12.441406 7.03125 16.96875l6.625 6.625c1.496094 1.496094 2.34375 3.550781 2.34375 5.65625v2.75c0 2.105469-.847656 4.167969-2.34375 5.65625l-6.625 6.625c-4.535156 4.527344-7.03125 10.558594-7.03125 16.96875v1.375h-128v-1.375c0-2.105469.847656-4.167969 2.34375-5.65625l6.625-6.625c4.535156-4.527344 7.03125-10.558594 7.03125-16.96875v-2.75c0-6.410156-2.496094-12.441406-7.03125-16.96875l-6.625-6.625c-1.496094-1.496094-2.34375-3.550781-2.34375-5.65625v-2.75c0-2.105469.847656-4.167969 2.34375-5.65625l8.96875-8.96875h12.6875c3.03125 0 5.800781-1.710938 7.160156-4.425781 1.351563-2.710938 1.0625-5.949219-.761718-8.375l-15.992188-21.320313c28.363281-8.199218 49.59375-39.96875 49.59375-77.878906 0-44.113281-28.710938-80-64-80s-64 35.886719-64 80c0 37.910156 21.230469 69.679688 49.59375 77.878906l-15.992188 21.320313c-1.824218 2.425781-2.113281 5.664062-.761718 8.375 1.359375 2.714843 4.128906 4.425781 7.160156 4.425781h13.105469c-3.25 4.183594-5.105469 9.238281-5.105469 14.625v2.75c0 6.410156 2.496094 12.441406 7.03125 16.96875l6.625 6.625c1.496094 1.496094 2.34375 3.550781 2.34375 5.65625v2.75c0 2.105469-.847656 4.167969-2.34375 5.65625l-6.625 6.625c-4.535156 4.527344-7.03125 10.558594-7.03125 16.96875v1.375h-72c-4.425781 0-8 3.574219-8 8v64c0 4.425781 3.574219 8 8 8h8v136c0 4.425781 3.574219 8 8 8h288c4.425781 0 8-3.574219 8-8v-136h8c4.425781 0 8-3.574219 8-8v-64c0-4.425781-3.574219-8-8-8zm-96-96 8-10.664062 8 10.664062zm-40-96c0-35.289062 21.527344-64 48-64s48 28.710938 48 64-21.527344 64-48 64-48-28.710938-48-64zm-104 96 8-10.664062 8 10.664062zm-40-96c0-35.289062 21.527344-64 48-64s48 28.710938 48 64-21.527344 64-48 64-48-28.710938-48-64zm256 400h-272v-128h272zm16-144h-304v-48h304zm0 0" fill="#5a2106"/><path d="m352 80h-16c0 18.3125-8.449219 32-16 32v16c17.945312 0 32-21.089844 32-48zm0 0" fill="#5a2106"/><path d="m208 80h-16c0 18.3125-8.449219 32-16 32v16c17.945312 0 32-21.089844 32-48zm0 0" fill="#5a2106"/><path d="m105.566406 239.839844c3.746094-.742188 6.433594-4.023438 6.433594-7.839844s-2.6875-7.097656-6.433594-7.839844l-8.621094-1.726562c-15.882812-3.167969-28.203124-15.496094-31.378906-31.378906l-1.726562-8.621094c-.742188-3.746094-4.023438-6.433594-7.839844-6.433594s-7.097656 2.6875-7.839844 6.433594l-1.726562 8.621094c-3.167969 15.882812-15.496094 28.203124-31.378906 31.378906l-8.621094 1.726562c-4.035156.808594-6.800782 4.535156-6.3945315 8.632813.4101565 4.09375 3.8476565 7.207031 7.9609375 7.207031 22.054688 0 40 17.945312 40 40 0 4.113281 3.121094 7.550781 7.207031 7.960938.273438.023437.535157.039062.800781.039062 3.777344 0 7.078126-2.664062 7.832032-6.433594l1.726562-8.621094c3.167969-15.882812 15.496094-28.203124 31.378906-31.378906zm-48.957031 12.367187c-4.96875-8.648437-12.167969-15.847656-20.824219-20.824219 8.429688-4.976562 15.40625-12.09375 20.214844-20.648437 5.007812 8.90625 12.359375 16.257813 21.265625 21.265625-8.554687 4.816406-15.671875 11.785156-20.65625 20.207031zm0 0" fill="#5a2106"/><path d="m489.566406 144.160156-8.621094-1.726562c-15.882812-3.167969-28.203124-15.496094-31.378906-31.378906l-1.726562-8.621094c-.742188-3.746094-4.023438-6.433594-7.839844-6.433594s-7.097656 2.6875-7.839844 6.433594l-1.726562 8.621094c-3.167969 15.882812-15.496094 28.203124-31.378906 31.378906l-8.621094 1.726562c-4.035156.808594-6.800782 4.535156-6.394532 8.632813.410157 4.09375 3.847657 7.207031 7.960938 7.207031 22.054688 0 40 17.945312 40 40 0 4.113281 3.121094 7.550781 7.207031 7.960938.265625.023437.527344.039062.800781.039062 3.777344 0 7.078126-2.664062 7.832032-6.433594l1.726562-8.621094c3.167969-15.882812 15.496094-28.203124 31.378906-31.378906l8.621094-1.726562c3.746094-.742188 6.433594-4.023438 6.433594-7.839844s-2.6875-7.097656-6.433594-7.839844zm-48.957031 28.046875c-4.96875-8.648437-12.167969-15.847656-20.824219-20.824219 8.429688-4.984374 15.40625-12.101562 20.207032-20.65625 5.007812 8.90625 12.359374 16.257813 21.261718 21.265626-8.542968 4.824218-15.660156 11.792968-20.644531 20.214843zm0 0" fill="#5a2106"/><path d="m128 368h16v16h-16zm0 0" fill="#5a2106"/><path d="m352 368h16v16h-16zm0 0" fill="#5a2106"/><path d="m352 448h16v16h-16zm0 0" fill="#5a2106"/><path d="m128 448h16v16h-16zm0 0" fill="#5a2106"/></svg>
