<?xml version="1.0" encoding="iso-8859-1"?>
<!-- Generator: Adobe Illustrator 19.0.0, SVG Export Plug-In . SVG Version: 6.00 Build 0)  -->
<svg xmlns="http://www.w3.org/2000/svg" xmlns:xlink="http://www.w3.org/1999/xlink" version="1.1" id="Capa_1" x="0px" y="0px" viewBox="0 0 512.001 512.001" style="enable-background:new 0 0 512.001 512.001;" xml:space="preserve" width="512px" height="512px">
<g>
	<g>
		<path d="M502.746,31.279L480.73,9.262c-12.338-12.34-32.42-12.343-44.761,0l-32.634,32.634c-0.444-0.008-0.885-0.032-1.33-0.032    c-18.201,0-35.312,7.087-48.181,19.957l-19.392,19.391c-7.123,1.924-14.09,3.997-20.916,6.201    c-57.638,10.672-102.343,26.254-140.593,49.005c-40.643,24.173-74.641,57.313-103.938,101.316    C33.991,290.293,6.06,313.309,5.812,313.511c-4.683,3.774-6.78,9.903-5.389,15.754c1.392,5.851,6.022,10.381,11.901,11.644    c1.275,0.275,14.74,3.063,33.002,3.063c13.86,0,30.483-1.614,46.636-7.146c-10.134,44.245-10.848,76.752-10.874,78.213    c-0.078,4.235,1.571,8.32,4.567,11.315l0.005,0.005c2.928,2.928,6.897,4.57,11.029,4.57c0.096,0,0.191-0.001,0.285-0.003    c1.462-0.026,33.968-0.74,78.213-10.875c-12.822,37.436-4.565,77.398-4.084,79.639c1.259,5.867,5.785,10.475,11.619,11.877    c1.206,0.289,2.424,0.431,3.634,0.431c4.635,0,9.117-2.074,12.121-5.766c0.227-0.278,23.243-28.208,75.802-63.203    c44.002-29.297,77.143-63.295,101.316-103.938c22.75-38.25,38.332-82.954,49.005-140.591c2.205-6.826,4.277-13.794,6.201-20.917    l19.392-19.392c13.616-13.615,20.235-31.607,19.894-49.491l32.659-32.658C515.087,63.7,515.087,43.62,502.746,31.279z     M50.73,312.682c11.98-13.343,27.351-32.312,44.224-57.656c22.392-33.63,47.362-60.145,77.312-81.018    c-34.538,37.8-55.707,82.614-68.581,121.024C88.793,308.147,68.002,312.077,50.73,312.682z M256.988,417.058    c-25.343,16.875-44.313,32.245-57.656,44.223c0.606-17.274,4.537-38.063,17.65-52.955c38.41-12.875,83.226-34.044,121.025-68.584    C317.134,369.695,290.619,394.666,256.988,417.058z M428.133,136.128l-22.362,22.362c-1.962,1.962-3.365,4.413-4.065,7.099    c-10.722,41.166-32.806,99.542-77.129,143.864c-44.896,44.896-104.199,67.032-146.043,77.696    c-26.86,6.845-50.206,9.984-65.071,11.412c3.891-40.144,20.366-142.389,89.098-211.123    c44.324-44.322,102.699-66.407,143.865-77.128c2.686-0.7,5.136-2.103,7.099-4.065l22.361-22.362    c7.202-7.202,16.662-10.802,26.121-10.802c9.434,0,18.869,3.582,26.064,10.745c0.041,0.042,0.081,0.082,0.123,0.123    C442.534,98.356,442.515,121.745,428.133,136.128z M480.685,53.979l-20.526,20.526c-2.755-4.513-6.067-8.782-9.968-12.683    c-0.039-0.041-0.08-0.08-0.121-0.12c-3.835-3.817-8.051-7.109-12.551-9.868l20.512-20.512c0.176-0.177,0.461-0.177,0.639,0    l22.016,22.017C480.861,53.517,480.861,53.803,480.685,53.979z" fill="#5a2106"/>
	</g>
</g>
<g>
</g>
<g>
</g>
<g>
</g>
<g>
</g>
<g>
</g>
<g>
</g>
<g>
</g>
<g>
</g>
<g>
</g>
<g>
</g>
<g>
</g>
<g>
</g>
<g>
</g>
<g>
</g>
<g>
</g>
</svg>
