<?xml version="1.0" encoding="iso-8859-1"?>
<!-- Generator: Adobe Illustrator 19.0.0, SVG Export Plug-In . SVG Version: 6.00 Build 0)  -->
<svg xmlns="http://www.w3.org/2000/svg" xmlns:xlink="http://www.w3.org/1999/xlink" version="1.1" id="Layer_1" x="0px" y="0px" viewBox="0 0 512 512" style="enable-background:new 0 0 512 512;" xml:space="preserve" width="512px" height="512px">
<g>
	<g>
		<path d="M472.874,451.65c31.183-3.763,48.983-38.754,32.357-66.464L371.365,161.862L507.607,25.619    c5.858-5.858,5.858-15.354,0-21.212c-5.857-5.858-15.354-5.858-21.212,0l-130.931,130.93l-61.844-103.17    c-17.154-28.59-58.535-28.53-75.658,0.005l-61.676,102.891L25.632,4.407c-5.857-5.858-15.354-5.858-21.212,0    c-5.858,5.858-5.858,15.354,0,21.212l135.968,135.968L6.356,385.186c-16.687,27.821,1.309,62.992,32.758,66.503L4.421,486.381    c-5.858,5.858-5.858,15.354,0,21.212c5.857,5.858,15.355,5.858,21.212,0l55.603-55.603H430.79l55.603,55.603    c5.857,5.858,15.355,5.858,21.212,0c5.858-5.858,5.858-15.354,0-21.212L472.874,451.65z M243.69,47.601    c5.484-9.14,18.724-9.138,24.205-0.006l65.703,109.609l-77.584,77.584l-77.859-77.859L243.69,47.601z M68.81,421.992H44.186    c-10.973,0-17.757-11.956-12.104-21.378c0.001-0.001,0.002-0.003,0.003-0.005l130.17-217.154l72.546,72.546L68.81,421.992z     M111.235,421.992l144.779-144.779l144.779,144.779H111.235z M443.217,421.992L277.226,256.001l72.272-72.272l130.008,216.885    c5.645,9.409-1.116,21.378-12.103,21.378H443.217z" fill="#FFFFFF"/>
	</g>
</g>
<g>
</g>
<g>
</g>
<g>
</g>
<g>
</g>
<g>
</g>
<g>
</g>
<g>
</g>
<g>
</g>
<g>
</g>
<g>
</g>
<g>
</g>
<g>
</g>
<g>
</g>
<g>
</g>
<g>
</g>
</svg>
